<?xml version="1.0" encoding="UTF-8"?>
<!DOCTYPE svg PUBLIC "-//W3C//DTD SVG 1.1//EN" "http://www.w3.org/Graphics/SVG/1.1/DTD/svg11.dtd">
<!-- Creator: CorelDRAW X7 -->
<svg xmlns="http://www.w3.org/2000/svg" xml:space="preserve" width="8.5in" height="11in" version="1.1" style="shape-rendering:geometricPrecision; text-rendering:geometricPrecision; image-rendering:optimizeQuality; fill-rule:evenodd; clip-rule:evenodd"
viewBox="0 0 8500 11000"
 xmlns:xlink="http://www.w3.org/1999/xlink">
 <defs>
  <style type="text/css">
   <![CDATA[
    .fil0 {fill:url(#id0)}
   ]]>
  </style>
  <radialGradient id="id0" gradientUnits="userSpaceOnUse" gradientTransform="matrix(1.41814 -0 -0 1.41814 -1851 -2281)" cx="4426.66" cy="5454.21" r="1160.63" fx="4426.66" fy="5454.21">
   <stop offset="0" style="stop-opacity:1; stop-color:#FFF000"/>
   <stop offset="0.541176" style="stop-opacity:1; stop-color:#F28815"/>
   <stop offset="1" style="stop-opacity:1; stop-color:#E62129"/>
  </radialGradient>
 </defs>
 <g id="Layer_x0020_1">
  <metadata id="CorelCorpID_0Corel-Layer"/>
  <path class="fil0" d="M5852 9294c-1612,68 -1384,-846 -1160,-1828 153,-672 372,-1340 -128,-1822 2451,633 172,2688 1288,3650zm-2709 -7683c1613,-10 1352,896 1092,1869 -177,666 -420,1325 62,1825 -2427,-722 -74,-2692 -1154,-3694zm-2411 2057c1128,-1154 1588,-332 2098,537 349,594 646,1230 1340,1239 -2219,1218 -1966,-1841 -3438,-1776zm5488 -1832c1161,1120 342,1586 -523,2101 -592,353 -1227,655 -1231,1349 -1233,-2211 1828,-1978 1754,-3450zm-5629 4954c-25,-1613 883,-1360 1859,-1110 668,171 1329,408 1824,-79 -698,2433 -2692,99 -3683,1189zm2039 2304c-1146,-1136 -320,-1590 552,-2094 597,-344 1235,-637 1249,-1331 1202,2227 -1855,1953 -1801,3425zm5632 -4904c22,1613 -886,1359 -1861,1107 -667,-172 -1328,-411 -1824,75 703,-2432 2692,-94 3685,-1182zm-197 3077c-1131,1151 -1588,327 -2096,-543 -347,-595 -642,-1233 -1337,-1243 2223,-1212 1961,1846 3433,1786z"/>
 </g>
</svg>
